<svg width="177" height="37" viewBox="0 0 177 37" fill="none" xmlns="http://www.w3.org/2000/svg">
<path d="M0 33C0 35.2091 1.79086 37 4 37H17.7885C18.1814 37 18.5 36.6814 18.5 36.2885C18.5 26.4642 10.5358 18.5 0.711538 18.5H0V33Z" fill="white"/>
<path d="M4 -1.74846e-07C1.79086 -7.8281e-08 7.8281e-08 1.79086 1.74846e-07 4L8.08661e-07 18.5C10.2173 18.5 18.5 10.2173 18.5 -8.08661e-07L4 -1.74846e-07Z" fill="#34A853"/>
<path d="M33 37C35.2091 37 37 35.2091 37 33L37 18.5C26.7827 18.5 18.5 26.7827 18.5 37L33 37Z" fill="#34A853"/>
<path d="M37 4C37 1.79086 35.2091 0 33 0H18.5C18.5 10.2173 26.7827 18.5 37 18.5V4Z" fill="white"/>
<path d="M61.8111 12.0156C61.6918 10.8991 61.1889 10.0298 60.3026 9.40767C59.4247 8.78551 58.2827 8.47443 56.8764 8.47443C55.8878 8.47443 55.0398 8.62358 54.3324 8.92188C53.625 9.22017 53.0838 9.625 52.7088 10.1364C52.3338 10.6477 52.142 11.2315 52.1335 11.8878C52.1335 12.4332 52.2571 12.9062 52.5043 13.3068C52.7599 13.7074 53.1051 14.0483 53.5398 14.3295C53.9744 14.6023 54.456 14.8324 54.9844 15.0199C55.5128 15.2074 56.0455 15.3651 56.5824 15.4929L59.0369 16.1065C60.0256 16.3366 60.9759 16.6477 61.8878 17.0398C62.8082 17.4318 63.6307 17.9261 64.3551 18.5227C65.0881 19.1193 65.6676 19.8395 66.0938 20.6832C66.5199 21.527 66.733 22.5156 66.733 23.6491C66.733 25.1832 66.3409 26.5341 65.5568 27.7017C64.7727 28.8608 63.6392 29.7685 62.1562 30.4247C60.6818 31.0724 58.8963 31.3963 56.7997 31.3963C54.7628 31.3963 52.9943 31.081 51.4943 30.4503C50.0028 29.8196 48.8352 28.8991 47.9915 27.6889C47.1563 26.4787 46.7045 25.0043 46.6364 23.2656H51.3026C51.3707 24.1776 51.652 24.9361 52.1463 25.5412C52.6406 26.1463 53.2841 26.598 54.0767 26.8963C54.8778 27.1946 55.7727 27.3438 56.7614 27.3438C57.7926 27.3438 58.696 27.1903 59.4716 26.8835C60.2557 26.5682 60.8693 26.1335 61.3125 25.5795C61.7557 25.017 61.9815 24.3608 61.9901 23.6108C61.9815 22.929 61.7813 22.3665 61.3892 21.9233C60.9972 21.4716 60.4474 21.0966 59.7401 20.7983C59.0412 20.4915 58.223 20.2187 57.2855 19.9801L54.3068 19.2131C52.1506 18.6591 50.446 17.8196 49.1932 16.6946C47.9489 15.5611 47.3267 14.0568 47.3267 12.1818C47.3267 10.6392 47.7443 9.28835 48.5795 8.12926C49.4233 6.97017 50.5696 6.07102 52.0185 5.43182C53.4673 4.78409 55.108 4.46023 56.9403 4.46023C58.7983 4.46023 60.4261 4.78409 61.8239 5.43182C63.2301 6.07102 64.3338 6.96165 65.1349 8.10369C65.9361 9.23721 66.3494 10.5412 66.375 12.0156H61.8111ZM77.8821 31.3835C75.9645 31.3835 74.3025 30.9616 72.8963 30.1179C71.49 29.2741 70.3991 28.0937 69.6236 26.5767C68.8565 25.0597 68.473 23.2869 68.473 21.2585C68.473 19.2301 68.8565 17.4531 69.6236 15.9276C70.3991 14.402 71.49 13.2173 72.8963 12.3736C74.3025 11.5298 75.9645 11.108 77.8821 11.108C79.7997 11.108 81.4616 11.5298 82.8679 12.3736C84.2741 13.2173 85.3608 14.402 86.1278 15.9276C86.9034 17.4531 87.2912 19.2301 87.2912 21.2585C87.2912 23.2869 86.9034 25.0597 86.1278 26.5767C85.3608 28.0937 84.2741 29.2741 82.8679 30.1179C81.4616 30.9616 79.7997 31.3835 77.8821 31.3835ZM77.9077 27.6761C78.9474 27.6761 79.8167 27.3906 80.5156 26.8196C81.2145 26.2401 81.7344 25.4645 82.0753 24.4929C82.4247 23.5213 82.5994 22.4389 82.5994 21.2457C82.5994 20.044 82.4247 18.9574 82.0753 17.9858C81.7344 17.0057 81.2145 16.2259 80.5156 15.6463C79.8167 15.0668 78.9474 14.777 77.9077 14.777C76.8423 14.777 75.956 15.0668 75.2486 15.6463C74.5497 16.2259 74.0256 17.0057 73.6761 17.9858C73.3352 18.9574 73.1648 20.044 73.1648 21.2457C73.1648 22.4389 73.3352 23.5213 73.6761 24.4929C74.0256 25.4645 74.5497 26.2401 75.2486 26.8196C75.956 27.3906 76.8423 27.6761 77.9077 27.6761ZM94.4069 4.81818V31H89.7791V4.81818H94.4069ZM110.241 22.7415V11.3636H114.869V31H110.382V27.5099H110.178C109.734 28.6094 109.006 29.5085 107.991 30.2074C106.986 30.9062 105.746 31.2557 104.271 31.2557C102.984 31.2557 101.847 30.9702 100.858 30.3991C99.8778 29.8196 99.1108 28.9801 98.5568 27.8807C98.0028 26.7727 97.7258 25.4347 97.7258 23.8665V11.3636H102.354V23.1506C102.354 24.3949 102.695 25.3835 103.376 26.1165C104.058 26.8494 104.953 27.2159 106.061 27.2159C106.743 27.2159 107.403 27.0497 108.043 26.7173C108.682 26.3849 109.206 25.8906 109.615 25.2344C110.033 24.5696 110.241 23.7386 110.241 22.7415ZM122.816 19.4943V31H118.188V11.3636H122.611V14.7003H122.842C123.293 13.6009 124.013 12.7273 125.002 12.0795C125.999 11.4318 127.231 11.108 128.697 11.108C130.052 11.108 131.232 11.3977 132.238 11.9773C133.252 12.5568 134.036 13.3963 134.59 14.4957C135.153 15.5952 135.43 16.929 135.421 18.4972V31H130.793V19.2131C130.793 17.9006 130.452 16.8736 129.771 16.1321C129.097 15.3906 128.164 15.0199 126.971 15.0199C126.161 15.0199 125.441 15.1989 124.81 15.5568C124.188 15.9062 123.698 16.4134 123.34 17.0781C122.991 17.7429 122.816 18.5483 122.816 19.4943ZM147.379 31.3835C145.41 31.3835 143.71 30.9744 142.278 30.1562C140.855 29.3295 139.76 28.1619 138.992 26.6534C138.225 25.1364 137.842 23.3509 137.842 21.2969C137.842 19.277 138.225 17.5043 138.992 15.9787C139.768 14.4446 140.85 13.2514 142.24 12.3991C143.629 11.5384 145.261 11.108 147.136 11.108C148.346 11.108 149.488 11.304 150.562 11.696C151.644 12.0795 152.599 12.6761 153.426 13.4858C154.261 14.2955 154.917 15.3267 155.394 16.5795C155.872 17.8239 156.11 19.3068 156.11 21.0284V22.4474H140.015V19.3281H151.674C151.666 18.4418 151.474 17.6534 151.099 16.9631C150.724 16.2642 150.2 15.7145 149.527 15.3139C148.862 14.9134 148.086 14.7131 147.2 14.7131C146.254 14.7131 145.423 14.9432 144.707 15.4034C143.991 15.8551 143.433 16.4517 143.032 17.1932C142.64 17.9261 142.44 18.7315 142.431 19.6094V22.3324C142.431 23.4744 142.64 24.4545 143.058 25.2727C143.475 26.0824 144.059 26.7045 144.809 27.1392C145.559 27.5653 146.437 27.7784 147.443 27.7784C148.116 27.7784 148.725 27.6847 149.271 27.4972C149.816 27.3011 150.289 27.0156 150.69 26.6406C151.09 26.2656 151.393 25.8011 151.598 25.2472L155.919 25.733C155.646 26.875 155.126 27.8722 154.359 28.7244C153.6 29.5682 152.629 30.2244 151.444 30.6932C150.26 31.1534 148.904 31.3835 147.379 31.3835ZM161.948 11.3636L165.911 18.6122L169.938 11.3636H174.834L168.915 21.1818L174.936 31H170.066L165.911 23.9304L161.794 31H156.885L162.868 21.1818L157.039 11.3636H161.948Z" fill="white"/>
</svg>
