<svg width="174" height="37" viewBox="0 0 174 37" fill="none" xmlns="http://www.w3.org/2000/svg">
<path d="M0 33C0 35.2091 1.79086 37 4 37H17.7885C18.1814 37 18.5 36.6814 18.5 36.2885C18.5 26.4642 10.5358 18.5 0.711538 18.5H0V33Z" fill="white"/>
<path d="M4 -1.74846e-07C1.79086 -7.8281e-08 7.8281e-08 1.79086 1.74846e-07 4L8.08661e-07 18.5C10.2173 18.5 18.5 10.2173 18.5 -8.08661e-07L4 -1.74846e-07Z" fill="#DFFF03"/>
<path d="M33 37C35.2091 37 37 35.2091 37 33L37 18.5C26.7827 18.5 18.5 26.7827 18.5 37L33 37Z" fill="#DFFF03"/>
<path d="M37 4C37 1.79086 35.2091 0 33 0H18.5C18.5 10.2173 26.7827 18.5 37 18.5V4Z" fill="white"/>
<path d="M62.1562 10.696C62.0199 9.48579 61.4574 8.54829 60.4688 7.88352C59.4801 7.21023 58.2358 6.87358 56.7358 6.87358C55.6619 6.87358 54.733 7.04403 53.9489 7.38494C53.1648 7.71733 52.5554 8.17756 52.1207 8.76562C51.6946 9.34517 51.4815 10.0057 51.4815 10.7472C51.4815 11.3693 51.6264 11.9062 51.9162 12.358C52.2145 12.8097 52.6023 13.1889 53.0795 13.4957C53.5653 13.794 54.0852 14.0455 54.6392 14.25C55.1932 14.446 55.7259 14.608 56.2372 14.7358L58.794 15.4006C59.6293 15.6051 60.4858 15.8821 61.3636 16.2315C62.2415 16.581 63.0554 17.0412 63.8054 17.6122C64.5554 18.1832 65.1605 18.8906 65.6207 19.7344C66.0895 20.5781 66.3239 21.5881 66.3239 22.7642C66.3239 24.2472 65.9403 25.5639 65.1733 26.7145C64.4148 27.8651 63.3111 28.7727 61.8622 29.4375C60.4219 30.1023 58.679 30.4347 56.6335 30.4347C54.6733 30.4347 52.9773 30.1236 51.5455 29.5014C50.1136 28.8793 48.9929 27.9972 48.1832 26.8551C47.3736 25.7045 46.9261 24.3409 46.8409 22.7642H50.804C50.8807 23.7102 51.1875 24.4986 51.7244 25.1293C52.2699 25.7514 52.9645 26.2159 53.8082 26.5227C54.6605 26.821 55.5938 26.9702 56.608 26.9702C57.7244 26.9702 58.7173 26.7955 59.5866 26.446C60.4645 26.0881 61.1548 25.5937 61.6577 24.9631C62.1605 24.3239 62.4119 23.5781 62.4119 22.7259C62.4119 21.9503 62.1903 21.3153 61.7472 20.821C61.3125 20.3267 60.7202 19.9176 59.9702 19.5938C59.2287 19.2699 58.3892 18.9844 57.4517 18.7372L54.358 17.8935C52.2614 17.3224 50.5994 16.483 49.3722 15.375C48.1534 14.267 47.544 12.8011 47.544 10.9773C47.544 9.46875 47.9531 8.15199 48.7713 7.02699C49.5895 5.90199 50.6974 5.02841 52.0952 4.40625C53.4929 3.77557 55.0696 3.46023 56.8253 3.46023C58.598 3.46023 60.1619 3.77131 61.517 4.39347C62.8807 5.01563 63.9545 5.87216 64.7386 6.96307C65.5227 8.04545 65.9318 9.28977 65.9659 10.696H62.1562ZM77.5689 30.3963C75.728 30.3963 74.1214 29.9744 72.7493 29.1307C71.3771 28.2869 70.3118 27.1065 69.5533 25.5895C68.7947 24.0724 68.4155 22.2997 68.4155 20.2713C68.4155 18.2344 68.7947 16.4531 69.5533 14.9276C70.3118 13.402 71.3771 12.2173 72.7493 11.3736C74.1214 10.5298 75.728 10.108 77.5689 10.108C79.4098 10.108 81.0163 10.5298 82.3885 11.3736C83.7606 12.2173 84.826 13.402 85.5845 14.9276C86.343 16.4531 86.7223 18.2344 86.7223 20.2713C86.7223 22.2997 86.343 24.0724 85.5845 25.5895C84.826 27.1065 83.7606 28.2869 82.3885 29.1307C81.0163 29.9744 79.4098 30.3963 77.5689 30.3963ZM77.5817 27.1875C78.7748 27.1875 79.7635 26.8722 80.5476 26.2415C81.3317 25.6108 81.9112 24.7713 82.2862 23.723C82.6697 22.6747 82.8615 21.5199 82.8615 20.2585C82.8615 19.0057 82.6697 17.8551 82.2862 16.8068C81.9112 15.75 81.3317 14.902 80.5476 14.2628C79.7635 13.6236 78.7748 13.304 77.5817 13.304C76.38 13.304 75.3828 13.6236 74.5902 14.2628C73.8061 14.902 73.2223 15.75 72.8388 16.8068C72.4638 17.8551 72.2763 19.0057 72.2763 20.2585C72.2763 21.5199 72.4638 22.6747 72.8388 23.723C73.2223 24.7713 73.8061 25.6108 74.5902 26.2415C75.3828 26.8722 76.38 27.1875 77.5817 27.1875ZM93.3714 3.81818V30H89.549V3.81818H93.3714ZM109.513 21.8565V10.3636H113.348V30H109.589V26.5994H109.385C108.933 27.6477 108.209 28.5213 107.212 29.2202C106.223 29.9105 104.991 30.2557 103.517 30.2557C102.256 30.2557 101.139 29.9787 100.168 29.4247C99.2045 28.8622 98.446 28.0312 97.892 26.9318C97.3465 25.8324 97.0738 24.473 97.0738 22.8537V10.3636H100.896V22.3935C100.896 23.7315 101.267 24.7969 102.008 25.5895C102.75 26.3821 103.713 26.7784 104.898 26.7784C105.614 26.7784 106.325 26.5994 107.033 26.2415C107.749 25.8835 108.341 25.3423 108.81 24.6179C109.287 23.8935 109.521 22.973 109.513 21.8565ZM120.866 18.3409V30H117.044V10.3636H120.713V13.5597H120.956C121.408 12.5199 122.115 11.6847 123.078 11.054C124.05 10.4233 125.273 10.108 126.747 10.108C128.085 10.108 129.257 10.3892 130.263 10.9517C131.268 11.5057 132.048 12.3324 132.602 13.4318C133.156 14.5312 133.433 15.8906 133.433 17.5099V30H129.611V17.9702C129.611 16.5469 129.24 15.4347 128.499 14.6335C127.757 13.8239 126.739 13.419 125.443 13.419C124.557 13.419 123.768 13.6108 123.078 13.9943C122.396 14.3778 121.855 14.9403 121.454 15.6818C121.062 16.4148 120.866 17.3011 120.866 18.3409ZM145.583 30.3963C143.648 30.3963 141.982 29.983 140.584 29.1562C139.195 28.321 138.121 27.1491 137.363 25.6406C136.613 24.1236 136.238 22.3466 136.238 20.3097C136.238 18.2983 136.613 16.5256 137.363 14.9915C138.121 13.4574 139.178 12.2599 140.533 11.3991C141.897 10.5384 143.49 10.108 145.314 10.108C146.422 10.108 147.496 10.2912 148.536 10.6577C149.576 11.0241 150.509 11.5994 151.336 12.3835C152.162 13.1676 152.814 14.1861 153.291 15.4389C153.769 16.6832 154.007 18.196 154.007 19.9773V21.3324H138.398V18.4688H150.262C150.262 17.4631 150.057 16.5724 149.648 15.7969C149.239 15.0128 148.664 14.3949 147.922 13.9432C147.189 13.4915 146.328 13.2656 145.34 13.2656C144.266 13.2656 143.328 13.5298 142.527 14.0582C141.735 14.5781 141.121 15.2599 140.686 16.1037C140.26 16.9389 140.047 17.8466 140.047 18.8267V21.0639C140.047 22.3764 140.277 23.4929 140.738 24.4134C141.206 25.3338 141.858 26.0369 142.693 26.5227C143.529 27 144.505 27.2386 145.621 27.2386C146.345 27.2386 147.006 27.1364 147.603 26.9318C148.199 26.7187 148.715 26.4034 149.149 25.9858C149.584 25.5682 149.916 25.0526 150.147 24.4389L153.764 25.0909C153.475 26.1562 152.955 27.0895 152.205 27.8906C151.463 28.6832 150.53 29.3011 149.405 29.7443C148.289 30.179 147.014 30.3963 145.583 30.3963ZM159.369 10.3636L163.702 18.0085L168.074 10.3636H172.255L166.131 20.1818L172.306 30H168.126L163.702 22.6619L159.292 30H155.099L161.209 20.1818L155.175 10.3636H159.369Z" fill="white"/>
</svg>
