<svg width="37" height="37" viewBox="0 0 37 37" fill="none" xmlns="http://www.w3.org/2000/svg">
<path d="M0 33C0 35.2091 1.79086 37 4 37H17.7885C18.1814 37 18.5 36.6814 18.5 36.2885C18.5 26.4642 10.5358 18.5 0.711538 18.5H0V33Z" fill="#002524"/>
<path d="M4 -1.74846e-07C1.79086 -7.8281e-08 7.8281e-08 1.79086 1.74846e-07 4L8.08661e-07 18.5C10.2173 18.5 18.5 10.2173 18.5 -8.08661e-07L4 -1.74846e-07Z" fill="#DFFF03"/>
<path d="M33 37C35.2091 37 37 35.2091 37 33L37 18.5C26.7827 18.5 18.5 26.7827 18.5 37L33 37Z" fill="#DFFF03"/>
<path d="M37 4C37 1.79086 35.2091 0 33 0H18.5C18.5 10.2173 26.7827 18.5 37 18.5V4Z" fill="#002524"/>
</svg>
