<svg width="56" height="56" viewBox="0 0 56 56" fill="none" xmlns="http://www.w3.org/2000/svg">
<path d="M0.94873 51.3473C0.94873 53.5564 2.73959 55.3473 4.94873 55.3473H27.3342C27.9171 55.3473 28.3897 54.8748 28.3897 54.2919C28.3897 39.7196 16.5765 27.9064 2.00415 27.9064H0.94873V51.3473Z" fill="#002524"/>
<path d="M4.94873 0.465454C2.73959 0.465454 0.948731 2.25631 0.948731 4.46545L0.948732 27.9064C16.1039 27.9064 28.3897 15.6207 28.3897 0.465453L4.94873 0.465454Z" fill="#DFFF03"/>
<path d="M51.8306 55.3473C54.0397 55.3473 55.8306 53.5564 55.8306 51.3473L55.8306 27.9064C40.6754 27.9064 28.3896 40.1921 28.3896 55.3473L51.8306 55.3473Z" fill="#DFFF03"/>
<path d="M55.8306 4.46545C55.8306 2.25631 54.0397 0.465454 51.8306 0.465454H28.3896C28.3896 15.6207 40.6754 27.9064 55.8306 27.9064V4.46545Z" fill="#002524"/>
</svg>
