<svg width="97" height="29" viewBox="0 0 97 29" fill="none" xmlns="http://www.w3.org/2000/svg">
<path d="M14.5472 0.00012207C6.51364 0.00012207 0 6.49334 0 14.5017C0 22.5102 6.51364 29.0034 14.5472 29.0034C22.5808 29.0034 29.0945 22.5102 29.0945 14.5017C29.0912 6.49334 22.5808 0.00012207 14.5472 0.00012207ZM21.2174 20.9137C20.9565 21.3396 20.3987 21.4762 19.9715 21.2128C16.5564 19.1319 12.2575 18.6604 7.19207 19.8147C6.70281 19.9252 6.21682 19.6228 6.10592 19.1351C5.99502 18.6474 6.29836 18.1629 6.78762 18.0524C12.3293 16.7908 17.0816 17.337 20.9173 19.6716C21.3446 19.9317 21.4784 20.4877 21.2174 20.9137ZM22.9983 16.9664C22.6689 17.4996 21.9709 17.6654 21.4392 17.337C17.5317 14.9407 11.5693 14.2481 6.94418 15.6463C6.34403 15.8284 5.71125 15.4902 5.5286 14.8919C5.34921 14.2937 5.68516 13.6629 6.28532 13.4808C11.5693 11.8843 18.1351 12.6582 22.6265 15.4089C23.1581 15.7406 23.3245 16.4364 22.9983 16.9664ZM23.1516 12.8532C18.4613 10.0797 10.7278 9.82286 6.2527 11.1787C5.53512 11.3966 4.77514 10.9901 4.55661 10.2748C4.33807 9.55949 4.74579 8.80189 5.46336 8.58404C10.6006 7.02983 19.143 7.32897 24.5411 10.5252C25.1869 10.9089 25.3989 11.7412 25.0173 12.385C24.6324 13.0256 23.7942 13.2369 23.1516 12.8532ZM39.5743 13.3865C37.0628 12.7882 36.616 12.3688 36.616 11.4909C36.616 10.6585 37.402 10.0992 38.5697 10.0992C39.7015 10.0992 40.8268 10.5252 42.001 11.3998C42.0369 11.4258 42.0826 11.4356 42.125 11.4291C42.1674 11.4226 42.2065 11.3998 42.2326 11.3608L43.459 9.63753C43.508 9.56599 43.4949 9.46845 43.4264 9.41317C42.0239 8.29141 40.4485 7.74841 38.6023 7.74841C35.8919 7.74841 33.9968 9.3709 33.9968 11.6925C33.9968 14.1831 35.6309 15.0643 38.4556 15.7438C40.8594 16.2966 41.2639 16.7583 41.2639 17.5842C41.2639 18.5011 40.4452 19.0701 39.1242 19.0701C37.6597 19.0701 36.4627 18.5791 35.1254 17.4216C35.0927 17.3923 35.0471 17.3793 35.0047 17.3826C34.959 17.3858 34.9199 17.4053 34.8905 17.4411L33.5141 19.0733C33.4554 19.1416 33.4651 19.2424 33.5304 19.3009C35.0862 20.6861 37.0008 21.4177 39.0655 21.4177C41.988 21.4177 43.8765 19.8244 43.8765 17.3631C43.883 15.2821 42.6338 14.1311 39.5743 13.3897V13.3865ZM50.4945 10.9186C49.229 10.9186 48.1885 11.4161 47.3339 12.4338V11.286C47.3339 11.195 47.2589 11.1202 47.1709 11.1202H44.9235C44.8322 11.1202 44.7605 11.195 44.7605 11.286V24.0319C44.7605 24.1229 44.8355 24.1977 44.9235 24.1977H47.1709C47.2622 24.1977 47.3339 24.1229 47.3339 24.0319V20.0098C48.1918 20.969 49.229 21.4372 50.4945 21.4372C52.8495 21.4372 55.2305 19.6326 55.2305 16.1795C55.2338 12.7232 52.8495 10.9186 50.4945 10.9186ZM52.6146 16.1763C52.6146 17.9353 51.5285 19.1611 49.9727 19.1611C48.4364 19.1611 47.2752 17.88 47.2752 16.1763C47.2752 14.4757 48.4364 13.1914 49.9727 13.1914C51.5024 13.1914 52.6146 14.4465 52.6146 16.1763ZM61.3365 10.9186C58.3063 10.9186 55.9318 13.2467 55.9318 16.2153C55.9318 19.1546 58.29 21.4567 61.3006 21.4567C64.3438 21.4567 66.7248 19.1384 66.7248 16.1795C66.7215 13.2272 64.3568 10.9186 61.3365 10.9186ZM61.3365 19.1806C59.7252 19.1806 58.5086 17.8898 58.5086 16.1763C58.5086 14.4562 59.6828 13.2109 61.2973 13.2109C62.9184 13.2109 64.1448 14.5017 64.1448 16.2153C64.1448 17.9321 62.9641 19.1806 61.3365 19.1806ZM73.196 11.1235H70.7204V8.6003C70.7204 8.50926 70.6486 8.43773 70.5573 8.43773H68.31C68.2187 8.43773 68.1437 8.51251 68.1437 8.6003V11.1235H67.0608C66.9694 11.1235 66.8977 11.1982 66.8977 11.2893V13.2174C66.8977 13.3085 66.9694 13.3832 67.0608 13.3832H68.1437V18.3678C68.1437 20.3837 69.1483 21.4047 71.1346 21.4047C71.9403 21.4047 72.6122 21.2388 73.2417 20.8812C73.2939 20.8519 73.3232 20.7966 73.3232 20.7381V18.9043C73.3232 18.849 73.2939 18.7937 73.245 18.7644C73.196 18.7352 73.1341 18.7319 73.0851 18.7579C72.6513 18.9758 72.2338 19.0766 71.7642 19.0766C71.0433 19.0766 70.7204 18.7514 70.7204 18.0166V13.38H73.196C73.2874 13.38 73.3591 13.3052 73.3591 13.2142V11.286C73.3624 11.1982 73.2906 11.1235 73.196 11.1235ZM81.8167 11.1332V10.8243C81.8167 9.9139 82.1657 9.50747 82.9518 9.50747C83.4215 9.50747 83.7966 9.60176 84.2174 9.74157C84.2695 9.75783 84.325 9.75133 84.3641 9.71881C84.4065 9.6863 84.4326 9.63753 84.4326 9.5855V7.69639C84.4326 7.62486 84.387 7.55983 84.3152 7.54032C83.8684 7.40701 83.3008 7.2737 82.4463 7.2737C80.3685 7.2737 79.2726 8.44098 79.2726 10.6455V11.1202H78.193C78.1017 11.1202 78.0266 11.195 78.0266 11.2828V13.2207C78.0266 13.3117 78.1017 13.3865 78.193 13.3865H79.2726V21.0763C79.2726 21.1673 79.3444 21.2421 79.4357 21.2421H81.683C81.7743 21.2421 81.8494 21.1673 81.8494 21.0763V13.3767H83.9499L87.1659 21.0632C86.8006 21.8696 86.4418 22.0322 85.9526 22.0322C85.5579 22.0322 85.1404 21.9151 84.7131 21.681C84.674 21.6583 84.6251 21.655 84.5827 21.668C84.5403 21.6843 84.5044 21.7135 84.4848 21.7558L83.7216 23.4238C83.6857 23.5019 83.7151 23.5962 83.7933 23.6352C84.5892 24.0644 85.3068 24.2497 86.194 24.2497C87.8542 24.2497 88.774 23.4791 89.5829 21.4047L93.4839 11.3543C93.5035 11.3023 93.4969 11.247 93.4676 11.2015C93.4382 11.156 93.386 11.13 93.3338 11.13H90.9919C90.9202 11.13 90.8582 11.1755 90.8354 11.2405L88.438 18.0686L85.8123 11.234C85.7895 11.169 85.7275 11.13 85.659 11.13L81.8167 11.1332ZM76.8198 11.1235H74.5725C74.4812 11.1235 74.4061 11.1982 74.4061 11.2893V21.0697C74.4061 21.1608 74.4812 21.2356 74.5725 21.2356H76.8198C76.9111 21.2356 76.9862 21.1608 76.9862 21.0697V11.286C76.9862 11.2438 76.9698 11.2015 76.9372 11.169C76.9046 11.1397 76.8622 11.1235 76.8198 11.1235ZM75.7076 6.66892C74.8171 6.66892 74.093 7.3875 74.093 8.27515C74.093 9.16281 74.8171 9.88464 75.7076 9.88464C76.598 9.88464 77.3188 9.16606 77.3188 8.27515C77.3188 7.3875 76.598 6.66892 75.7076 6.66892ZM95.4083 14.2676C94.5178 14.2676 93.8264 13.5556 93.8264 12.6907C93.8264 11.8258 94.5276 11.1039 95.4181 11.1039C96.3085 11.1039 97 11.816 97 12.6809C97 13.5458 96.2955 14.2676 95.4083 14.2676ZM95.4181 11.26C94.6059 11.26 93.9927 11.9038 93.9927 12.6907C93.9927 13.4775 94.6026 14.1116 95.4083 14.1116C96.2172 14.1116 96.8337 13.471 96.8337 12.6809C96.8337 11.8941 96.2237 11.26 95.4181 11.26ZM95.7671 12.8435L96.2139 13.4678H95.8356L95.4311 12.8955H95.0854V13.4678H94.769V11.8128H95.5094C95.8943 11.8128 96.1487 12.0111 96.1487 12.3395C96.1552 12.6126 95.9954 12.7785 95.7671 12.8435ZM95.4996 12.0956H95.0886V12.6191H95.4996C95.7051 12.6191 95.829 12.5183 95.829 12.3558C95.829 12.1867 95.7051 12.0956 95.4996 12.0956Z" fill="#001D21"/>
</svg>
