<svg width="70" height="29" viewBox="0 0 70 29" fill="none" xmlns="http://www.w3.org/2000/svg">
<g clip-path="url(#clip0_164_197)">
<path fill-rule="evenodd" clip-rule="evenodd" d="M70 14.984C70 10.0281 67.5888 6.11755 62.9805 6.11755C58.3527 6.11755 55.5527 10.0281 55.5527 14.9453C55.5527 20.7724 58.8583 23.715 63.6027 23.715C65.9166 23.715 67.6666 23.1923 68.9888 22.4567V18.5848C67.6666 19.2431 66.15 19.6496 64.225 19.6496C62.3388 19.6496 60.6666 18.9914 60.4527 16.707H69.9611C69.9611 16.4553 70 15.4487 70 14.984ZM60.3944 13.1449C60.3944 10.9573 61.7361 10.0475 62.9611 10.0475C64.1472 10.0475 65.4111 10.9573 65.4111 13.1449H60.3944Z" fill="#001D21"/>
<path fill-rule="evenodd" clip-rule="evenodd" d="M48.0472 6.11755C46.1417 6.11755 44.9167 7.00807 44.2361 7.62757L43.9833 6.4273H39.7056V29.0001L44.5667 27.974L44.5861 22.4954C45.2861 22.9987 46.3167 23.715 48.0278 23.715C51.5083 23.715 54.6778 20.9273 54.6778 14.7905C54.6583 9.1763 51.45 6.11755 48.0472 6.11755ZM46.8806 19.456C45.7333 19.456 45.0528 19.0495 44.5861 18.5461L44.5667 11.3639C45.0722 10.8025 45.7722 10.4153 46.8806 10.4153C48.65 10.4153 49.875 12.3899 49.875 14.926C49.875 17.5201 48.6695 19.456 46.8806 19.456Z" fill="#001D21"/>
<path fill-rule="evenodd" clip-rule="evenodd" d="M33.0166 4.97542L37.8972 3.93003V0.00012207L33.0166 1.02616V4.97542Z" fill="#001D21"/>
<path d="M37.8972 6.44678H33.0166V23.386H37.8972V6.44678Z" fill="#001D21"/>
<path fill-rule="evenodd" clip-rule="evenodd" d="M27.786 7.87927L27.4749 6.44669H23.2749V23.3859H28.136V11.906C29.2832 10.4153 31.2277 10.6863 31.8305 10.8993V6.44669C31.2082 6.21438 28.9332 5.78848 27.786 7.87927Z" fill="#001D21"/>
<path fill-rule="evenodd" clip-rule="evenodd" d="M18.0637 2.24573L13.3192 3.2524L13.2998 18.7591C13.2998 21.6242 15.4581 23.7344 18.3359 23.7344C19.9304 23.7344 21.097 23.444 21.7387 23.0955V19.1656C21.1165 19.4173 18.0442 20.3078 18.0442 17.4427V10.5702H21.7387V6.44666H18.0442L18.0637 2.24573Z" fill="#001D21"/>
<path fill-rule="evenodd" clip-rule="evenodd" d="M4.91944 11.3639C4.91944 10.6089 5.54167 10.3185 6.57222 10.3185C8.05 10.3185 9.91667 10.7637 11.3944 11.5575V7.00807C9.78056 6.36922 8.18611 6.11755 6.57222 6.11755C2.625 6.11755 0 8.16962 0 11.5962C0 16.9393 7.38889 16.0682 7.38889 18.3719C7.38889 19.2624 6.61111 19.5528 5.52222 19.5528C3.90833 19.5528 1.84722 18.8946 0.213889 18.0041V22.6115C2.02222 23.3859 3.85 23.715 5.52222 23.715C9.56667 23.715 12.3472 21.721 12.3472 18.2557C12.3278 12.5061 4.91944 13.5321 4.91944 11.3639Z" fill="#001D21"/>
</g>
<defs>
<clipPath id="clip0_164_197">
<rect width="70" height="29" fill="white"/>
</clipPath>
</defs>
</svg>
