<svg width="121" height="28" viewBox="0 0 121 28" fill="none" xmlns="http://www.w3.org/2000/svg">
<g clip-path="url(#clip0_164_230)">
<path d="M106.287 9.42773C106.958 9.42773 107.513 9.08834 107.591 8.64838L108.256 1.31999C108.256 0.597204 107.384 0.00012207 106.287 0.00012207C105.189 0.00012207 104.324 0.597204 104.324 1.31999L104.989 8.64838C105.06 9.08205 105.616 9.42773 106.287 9.42773ZM102.22 11.7155C102.555 11.1498 102.53 10.5088 102.175 10.2259L95.99 6.00237C95.3444 5.63783 94.3825 6.07779 93.8338 7.00169C93.285 7.9256 93.3819 8.95635 94.021 9.3146L100.871 12.4194C101.303 12.5766 101.884 12.2749 102.22 11.7155ZM110.354 11.7092C110.69 12.2749 111.271 12.5766 111.703 12.4194L118.553 9.3146C119.198 8.95007 119.289 7.91931 118.746 7.00169C118.198 6.07779 117.229 5.64412 116.59 6.00237L110.406 10.2259C110.051 10.5088 110.025 11.1498 110.354 11.7092ZM106.287 18.5788C106.958 18.5788 107.513 18.9182 107.591 19.3581L108.256 26.6803C108.256 27.4093 107.384 28.0001 106.287 28.0001C105.189 28.0001 104.324 27.4093 104.324 26.6803L104.989 19.3581C105.06 18.9182 105.616 18.5788 106.287 18.5788ZM110.354 16.291C110.69 15.7254 111.271 15.43 111.703 15.5808L118.553 18.6856C119.198 19.0502 119.289 20.0809 118.746 21.0048C118.198 21.9225 117.229 22.3624 116.59 22.0042L110.406 17.7869C110.051 17.4915 110.025 16.8567 110.354 16.291ZM102.22 16.2847C102.555 16.8504 102.53 17.4915 102.175 17.7743L95.99 21.9916C95.3444 22.3561 94.3825 21.9162 93.8338 20.9923C93.285 20.0684 93.3819 19.0376 94.021 18.6731L100.871 15.5682C101.303 15.4237 101.884 15.7191 102.22 16.2847Z" fill="#001D21"/>
<path d="M67.2753 17.7617C67.2753 17.988 67.2559 18.2205 67.1914 18.4217C66.9267 19.2701 66.0293 19.9804 64.906 19.9804C63.97 19.9804 63.2211 19.4587 63.2211 18.3651C63.2211 16.687 65.1191 16.2219 67.2753 16.2344V17.7617ZM70.6581 14.8392C70.6581 12.0737 69.4444 9.64141 65.345 9.64141C63.2405 9.64141 61.5684 10.2196 60.6582 10.7287L61.3231 12.9536C62.1559 12.4383 63.4858 12.0172 64.7447 12.0172C66.8234 12.0109 67.1656 13.1673 67.1656 13.9027V14.0787C62.6336 14.0724 59.7608 15.5997 59.7608 18.7171C59.7608 20.6214 61.2198 22.4001 63.7569 22.4001C65.3192 22.4001 66.6233 21.7967 67.4044 20.8226H67.4819C67.4819 20.8226 67.9983 22.9343 70.8518 22.1236C70.7033 21.2437 70.6517 20.3072 70.6517 19.1821L70.6581 14.8392ZM0 5.87665C0 5.87665 2.96319 17.6989 3.43446 19.6158C3.98965 21.8533 4.98383 22.6829 7.85018 22.1236L9.70298 14.7952C10.1743 12.9725 10.4841 11.6778 10.7875 9.82367H10.8392C11.0522 11.6966 11.3557 12.9788 11.7365 14.8015C11.7365 14.8015 12.4919 18.1263 12.8728 19.8735C13.2601 21.6208 14.3382 22.7206 17.1465 22.1236L21.5557 5.87665H17.9986L16.4944 12.9034C16.0877 14.946 15.7197 16.5487 15.4421 18.4154H15.3905C15.1323 16.5613 14.803 15.0277 14.3963 13.0353L12.8276 5.87665H9.12197L7.44347 12.8531C6.96575 14.9774 6.52676 16.687 6.2427 18.4908H6.19106C5.90055 16.7875 5.5132 14.638 5.10004 12.5828C5.10004 12.5828 4.10585 7.59247 3.75724 5.87036L0 5.87665ZM28.2891 17.7617C28.2891 17.988 28.2697 18.2205 28.2051 18.4217C27.9405 19.2701 27.0431 19.9804 25.9198 19.9804C24.9837 19.9804 24.2349 19.4587 24.2349 18.3651C24.2349 16.687 26.1328 16.2219 28.2891 16.2344V17.7617ZM31.6783 14.8392C31.6783 12.0737 30.4647 9.64141 26.3653 9.64141C24.2607 9.64141 22.5886 10.2196 21.6784 10.7287L22.3433 12.9536C23.1761 12.4383 24.506 12.0172 25.7649 12.0172C27.8501 12.0109 28.1858 13.1673 28.1858 13.9027V14.0787C23.6474 14.0724 20.781 15.5997 20.781 18.7171C20.781 20.6214 22.24 22.4001 24.7771 22.4001C26.3394 22.4001 27.6435 21.7967 28.4246 20.8226H28.5021C28.5021 20.8226 29.0186 22.9343 31.8785 22.1236C31.73 21.2437 31.6783 20.3072 31.6783 19.1821V14.8392ZM37.3271 18.6731V5.87665H33.9378V22.1236H37.3271V18.6731ZM81.6716 5.87665V17.8623C81.6716 19.5153 81.9944 20.6717 82.6722 21.3819C83.2726 22.0041 84.2539 22.4001 85.4289 22.4001C86.4295 22.4001 87.4172 22.2116 87.882 22.0481L87.8368 19.4713C87.4882 19.553 87.0944 19.6221 86.5521 19.6221C85.3966 19.6221 85.0092 18.8993 85.0092 17.416V12.8279H87.9595V9.71683H85.0092V5.87665H81.6716ZM72.9176 9.91795V22.1236H76.4166V15.8762C76.4166 15.5368 76.436 15.2414 76.4941 14.9774C76.7523 13.6701 77.7788 12.8342 79.2572 12.8342C79.6639 12.8342 79.9544 12.8782 80.2643 12.9222V9.7294C79.9996 9.67912 79.8188 9.65398 79.496 9.65398C78.192 9.65398 76.7071 10.471 76.0809 12.2309H75.9841V9.93052H72.9176M39.6964 9.91795V22.1236H43.105V14.9649C43.105 14.6318 43.1437 14.2735 43.2664 13.9655C43.5504 13.2428 44.2348 12.4006 45.3387 12.4006C46.7138 12.4006 47.3593 13.5319 47.3593 15.166V22.1236H50.7615V14.8769C50.7615 14.5563 50.8067 14.1729 50.9035 13.8901C51.1811 13.0731 51.9235 12.4006 52.95 12.4006C54.3444 12.4006 55.0094 13.513 55.0094 15.4362V22.1236H58.418V14.9334C58.418 11.1435 56.4426 9.64141 54.2089 9.64141C53.2211 9.64141 52.44 9.88024 51.7363 10.3013C51.1424 10.6596 50.613 11.1624 50.1482 11.8223H50.0966C49.5607 10.5087 48.289 9.64141 46.6427 9.64141C44.5253 9.64141 43.5698 10.6847 42.9888 11.5772H42.9307V9.91795H39.6964Z" fill="#001D21"/>
</g>
<defs>
<clipPath id="clip0_164_230">
<rect width="121" height="28" fill="white"/>
</clipPath>
</defs>
</svg>
