<svg width="89" height="27" viewBox="0 0 89 27" fill="none" xmlns="http://www.w3.org/2000/svg">
<g clip-path="url(#clip0_164_220)">
<mask id="mask0_164_220" style="mask-type:luminance" maskUnits="userSpaceOnUse" x="0" y="0" width="89" height="28">
<path d="M89 0.00012207H0V27.0001H89V0.00012207Z" fill="white"/>
</mask>
<g mask="url(#mask0_164_220)">
<path d="M46.8945 6.78474C46.8945 7.75858 46.0875 8.5432 45.0859 8.5432C44.0843 8.5432 43.2773 7.75858 43.2773 6.78474C43.2773 5.81089 44.0558 5.02628 45.0859 5.02628C46.116 5.05397 46.8945 5.83858 46.8945 6.78474ZM39.4466 10.3247V10.7586C39.4466 10.7586 38.5874 9.67858 36.7503 9.67858C33.7218 9.67858 31.3578 11.9217 31.3578 15.0278C31.3578 18.1109 33.6933 20.377 36.7503 20.377C38.6111 20.377 39.4466 19.2694 39.4466 19.2694V19.7309C39.4466 19.9478 39.6127 20.1094 39.8358 20.1094H42.0858V9.94628H39.8358C39.6127 9.94628 39.4466 10.1355 39.4466 10.3247ZM39.4466 16.837C39.0288 17.4324 38.1981 17.9447 37.1965 17.9447C35.4164 17.9447 34.0541 16.8647 34.0541 15.0232C34.0541 13.1863 35.4164 12.1063 37.1965 12.1063C38.1696 12.1063 39.0573 12.6463 39.4466 13.214V16.837ZM43.752 9.94628H46.4198V20.1094H43.752V9.94628ZM83.6119 9.67397C81.7796 9.67397 80.9156 10.754 80.9156 10.754V5.05397H78.2479V20.1094H80.4979C80.721 20.1094 80.8872 19.9201 80.8872 19.7309V19.274C80.8872 19.274 81.7511 20.3817 83.5834 20.3817C86.612 20.3817 88.9759 18.1109 88.9759 15.0324C88.9759 11.9447 86.6167 9.67397 83.6119 9.67397ZM83.1704 17.917C82.1404 17.917 81.3381 17.4047 80.9204 16.8094V13.1863C81.3381 12.6463 82.2258 12.0786 83.1704 12.0786C84.9505 12.0786 86.3129 13.1586 86.3129 14.9955C86.3082 16.837 84.9505 17.917 83.1704 17.917ZM76.857 14.0817V20.137H74.1893V14.377C74.1893 12.7017 73.6339 12.0278 72.1338 12.0278C71.3269 12.0278 70.4962 12.434 69.9645 13.0294V20.1094H67.2967V9.94628H69.4091C69.6322 9.94628 69.7984 10.1355 69.7984 10.3247V10.7586C70.5769 9.97397 71.6069 9.67858 72.6323 9.67858C73.8 9.67858 74.7731 10.0017 75.5516 10.6524C76.4963 11.4047 76.857 12.3786 76.857 14.0817ZM60.8219 9.67397C58.9896 9.67397 58.1257 10.754 58.1257 10.754V5.05397H55.4579V20.1094H57.708C57.9311 20.1094 58.0972 19.9201 58.0972 19.7309V19.274C58.0972 19.274 58.9611 20.3817 60.7934 20.3817C63.822 20.3817 66.186 18.1109 66.186 15.0324C66.2144 11.9447 63.8505 9.67397 60.8219 9.67397ZM60.3757 17.917C59.3456 17.917 58.5434 17.4047 58.1257 16.8094V13.1863C58.5434 12.6463 59.4311 12.0786 60.3757 12.0786C62.1558 12.0786 63.5182 13.1586 63.5182 14.9955C63.5182 16.837 62.1558 17.917 60.3757 17.917ZM53.1462 9.67397C53.9531 9.67397 54.3709 9.80781 54.3709 9.80781V12.2124C54.3709 12.2124 52.1493 11.4832 50.7585 13.0247V20.1324H48.0907V9.94628H50.3407C50.5638 9.94628 50.73 10.1355 50.73 10.3247V10.7586C51.2284 10.1909 52.3155 9.67397 53.1462 9.67397ZM25.4336 19.1909C25.296 18.8678 25.1536 18.517 25.0159 18.217C24.7928 17.7324 24.5697 17.2709 24.3751 16.837L24.3466 16.8094C22.4288 12.757 20.3734 8.64935 18.2041 4.59243L18.1186 4.43089C17.8908 4.01089 17.6677 3.58628 17.4541 3.16166C17.174 2.67704 16.8987 2.16012 16.4525 1.67551C15.5695 0.595507 14.2879 0.00012207 12.9255 0.00012207C11.5347 0.00012207 10.2862 0.595507 9.37007 1.62012C8.95234 2.10474 8.64854 2.62166 8.36847 3.10628C8.15011 3.53089 7.93175 3.95551 7.7039 4.37551L7.61846 4.53705C5.47759 8.58935 3.3937 12.697 1.47594 16.754L1.44746 16.8094C1.25284 17.2432 1.02973 17.7001 0.806625 18.1894C0.668965 18.4847 0.531304 18.8124 0.388896 19.1632C0.0281304 20.1647 -0.0857957 21.1109 0.0566119 22.0847C0.360415 24.1109 1.75126 25.814 3.66902 26.5709C4.39055 26.8663 5.14056 27.0047 5.91906 27.0047C6.14216 27.0047 6.41748 26.977 6.64059 26.9494C7.55675 26.8432 8.50138 26.5432 9.42229 26.0309C10.5615 25.4078 11.6438 24.517 12.8685 23.2201C14.0933 24.517 15.204 25.4078 16.3148 26.0309C17.231 26.5432 18.1756 26.8432 19.0965 26.9494C19.3196 26.977 19.5997 27.0047 19.818 27.0047C20.5965 27.0047 21.375 26.8709 22.0681 26.5709C24.0143 25.814 25.3767 24.0832 25.6805 22.0847C25.9083 21.134 25.7944 20.1878 25.4336 19.1909ZM12.897 20.594C11.397 18.757 10.4239 17.0263 10.0916 15.5678C9.95394 14.9447 9.92546 14.4047 10.0062 13.9201C10.0631 13.4863 10.2293 13.1078 10.4524 12.7847C10.9793 12.0555 11.8717 11.594 12.897 11.594C13.9271 11.594 14.8433 12.0278 15.3417 12.7847C15.5648 13.1078 15.7309 13.4863 15.7879 13.9201C15.8733 14.4047 15.8449 14.9724 15.7025 15.5678C15.3749 16.9986 14.4018 18.7294 12.897 20.594ZM23.9906 21.8632C23.796 23.2663 22.8228 24.4847 21.4605 25.0247C20.7912 25.2924 20.0696 25.3755 19.3481 25.2924C18.655 25.2094 17.9572 24.997 17.2357 24.5909C16.2341 24.0509 15.2325 23.2109 14.0648 21.9694C15.8971 19.7817 17.0126 17.7786 17.4303 15.997C17.625 15.157 17.6534 14.4001 17.568 13.6986C17.4588 13.0247 17.2072 12.4017 16.818 11.8617C15.954 10.6432 14.511 9.94166 12.897 9.94166C11.2831 9.94166 9.84001 10.6709 8.97607 11.8617C8.58683 12.4017 8.33524 13.0247 8.22606 13.6986C8.11688 14.4001 8.14062 15.1847 8.36372 15.997C8.78145 17.7786 9.92071 19.8094 11.7245 21.997C10.5853 23.2386 9.5552 24.0786 8.5536 24.6186C7.83207 25.0247 7.13427 25.2417 6.44122 25.3201C5.69121 25.4032 4.96967 25.2924 4.32884 25.0524C2.96647 24.5124 1.99336 23.294 1.79873 21.8909C1.71329 21.217 1.77025 20.5386 2.05032 19.7817C2.13102 19.5094 2.27342 19.2417 2.41108 18.9186C2.60571 18.4847 2.82881 18.0278 3.05192 17.5663L3.0804 17.5109C4.99816 13.4817 7.05357 9.37397 9.19443 5.37704L9.27988 5.21551C9.50298 4.80935 9.72609 4.38012 9.94919 3.97397C10.1723 3.54012 10.4239 3.13397 10.7277 2.7832C11.3116 2.13704 12.0901 1.78166 12.9492 1.78166C13.8132 1.78166 14.5869 2.13243 15.1708 2.7832C15.4746 3.13397 15.7262 3.54012 15.9493 3.97397C16.1724 4.38012 16.3955 4.81397 16.6186 5.21551L16.7041 5.37704C18.8117 9.39243 20.8434 13.4494 22.7896 17.5386V17.5663C23.0127 18.0001 23.2073 18.4847 23.4304 18.9186C23.5681 19.2417 23.7105 19.514 23.7912 19.7817C24.0191 20.4878 24.0998 21.1617 23.9906 21.8632Z" fill="#001D21"/>
</g>
</g>
<defs>
<clipPath id="clip0_164_220">
<rect width="89" height="27" fill="white"/>
</clipPath>
</defs>
</svg>
