<svg width="82" height="25" viewBox="0 0 82 25" fill="none" xmlns="http://www.w3.org/2000/svg">
<g clip-path="url(#clip0_164_206)">
<path fill-rule="evenodd" clip-rule="evenodd" d="M50.8716 19.5508C46.1064 23.1042 39.1996 25 33.253 25C24.9148 25 17.4084 21.88 11.7294 16.6908C11.2833 16.2827 11.683 15.7266 12.2185 16.0444C18.3471 19.6519 25.925 21.8222 33.7527 21.8222C39.0318 21.8222 44.8393 20.7172 50.1791 18.4241C50.9858 18.0775 51.6604 18.9586 50.8716 19.5508Z" fill="#001D21"/>
<path fill-rule="evenodd" clip-rule="evenodd" d="M52.8526 17.2575C52.2458 16.4703 48.8263 16.8856 47.2915 17.0697C46.8239 17.1275 46.7525 16.7159 47.1737 16.4197C49.8971 14.4805 54.366 15.0403 54.8872 15.6903C55.4083 16.3439 54.7515 20.8759 52.1923 23.039C51.7996 23.3712 51.4248 23.1943 51.5997 22.7537C52.1744 21.302 53.463 18.0484 52.8526 17.2575Z" fill="#001D21"/>
<path fill-rule="evenodd" clip-rule="evenodd" d="M47.3986 2.72986V0.844837C47.3986 0.559556 47.6127 0.368164 47.8697 0.368164H56.2114C56.4791 0.368164 56.6933 0.563168 56.6933 0.844837V2.45902C56.6897 2.72986 56.4649 3.08375 56.0651 3.64348L51.7425 9.88716C53.3488 9.84744 55.0442 10.0894 56.5006 10.92C56.8289 11.1077 56.9182 11.3822 56.9432 11.653V13.6644C56.9432 13.9389 56.6433 14.2603 56.3292 14.0942C53.7628 12.7328 50.354 12.5847 47.5163 14.1086C47.2272 14.2675 46.9238 13.9497 46.9238 13.6753V11.765C46.9238 11.458 46.9274 10.9344 47.2308 10.4686L52.2387 3.20292H47.8804C47.6127 3.20292 47.3986 3.01153 47.3986 2.72986Z" fill="#001D21"/>
<path fill-rule="evenodd" clip-rule="evenodd" d="M16.9687 14.4916H14.4309C14.1881 14.4736 13.9954 14.2894 13.9775 14.0547V0.877587C13.9775 0.613973 14.1953 0.404529 14.4665 0.404529H16.8331C17.0794 0.415356 17.2757 0.60675 17.2935 0.845085V2.5676H17.3399C17.9574 0.902861 19.1175 0.126465 20.6809 0.126465C22.2693 0.126465 23.2616 0.902861 23.9754 2.5676C24.5894 0.902861 25.985 0.126465 27.4806 0.126465C28.5443 0.126465 29.7079 0.570635 30.4182 1.56731C31.2213 2.67594 31.0572 4.28652 31.0572 5.69848L31.0536 14.015C31.0536 14.2786 30.8359 14.4916 30.5646 14.4916H28.0303C27.7769 14.4736 27.5734 14.2677 27.5734 14.015V7.03099C27.5734 6.47487 27.6234 5.08819 27.502 4.56096C27.3128 3.67623 26.7453 3.42706 26.01 3.42706C25.3961 3.42706 24.7536 3.84235 24.493 4.5068C24.2324 5.17125 24.2574 6.28348 24.2574 7.03099V14.015C24.2574 14.2786 24.0397 14.4916 23.7684 14.4916H21.2341C20.9771 14.4736 20.7773 14.2677 20.7773 14.015L20.7737 7.03099C20.7737 5.56125 21.0128 3.39817 19.2103 3.39817C17.3863 3.39817 17.4577 5.50708 17.4577 7.03099V14.015C17.4577 14.2786 17.24 14.4916 16.9687 14.4916Z" fill="#001D21"/>
<path fill-rule="evenodd" clip-rule="evenodd" d="M63.8741 0.126465C67.6399 0.126465 69.678 3.39817 69.678 7.55822C69.678 11.5774 67.4257 14.7661 63.8741 14.7661C60.1762 14.7661 58.1631 11.4944 58.1631 7.41738C58.1631 3.31511 60.2012 0.126465 63.8741 0.126465ZM63.8956 2.81677C62.0252 2.81677 61.9074 5.39513 61.9074 7.0021C61.9074 8.61267 61.8824 12.0505 63.8741 12.0505C65.8409 12.0505 65.9337 9.27712 65.9337 7.5871C65.9337 6.47487 65.8873 5.14597 65.5553 4.09151C65.2698 3.17428 64.7022 2.81677 63.8956 2.81677Z" fill="#001D21"/>
<path fill-rule="evenodd" clip-rule="evenodd" d="M74.5618 14.4916H72.0347C71.7812 14.4736 71.5778 14.2677 71.5778 14.015L71.5742 0.834249C71.5956 0.592301 71.8062 0.404529 72.0632 0.404529H74.4155C74.6368 0.415356 74.8188 0.567025 74.8688 0.77286V2.78789H74.9152C75.6255 0.985923 76.6214 0.126465 78.3739 0.126465C79.5126 0.126465 80.6227 0.54175 81.3365 1.67926C82.0005 2.73372 82.0005 4.5068 82.0005 5.78153V14.0763C81.9719 14.3075 81.7613 14.4916 81.5115 14.4916H78.9665C78.7344 14.4736 78.5417 14.3002 78.5167 14.0763V6.91904C78.5167 5.47819 78.6809 3.36928 76.9283 3.36928C76.3108 3.36928 75.7433 3.78818 75.4613 4.42374C75.1044 5.22903 75.058 6.0307 75.058 6.91904V14.015C75.0544 14.2786 74.8331 14.4916 74.5618 14.4916Z" fill="#001D21"/>
<path fill-rule="evenodd" clip-rule="evenodd" d="M40.7484 8.19732C40.7484 9.19761 40.7734 10.0318 40.2737 10.9201C39.8703 11.6424 39.2279 12.0865 38.5175 12.0865C37.5431 12.0865 36.972 11.3354 36.972 10.2268C36.972 8.03843 38.9102 7.6412 40.7484 7.6412V8.19732ZM43.3077 14.4554C43.1399 14.6071 42.8972 14.6179 42.708 14.5168C41.8656 13.809 41.7122 13.4804 41.2517 12.8051C39.8596 14.2424 38.8709 14.6721 37.0684 14.6721C34.9303 14.6721 33.2705 13.3396 33.2705 10.671C33.2705 8.58732 34.3842 7.16814 35.9761 6.4748C37.3539 5.8609 39.2778 5.75256 40.7484 5.58284V5.25062C40.7484 4.64033 40.7948 3.9181 40.4379 3.39088C40.1309 2.91782 39.5384 2.72281 39.0137 2.72281C38.0464 2.72281 37.1861 3.22476 36.9756 4.26477C36.9327 4.49589 36.765 4.72339 36.5329 4.73422L34.0736 4.46699C33.8666 4.42005 33.6346 4.25033 33.6953 3.92894C34.2592 0.910019 36.9577 0 39.3706 0C40.6056 0 42.219 0.332226 43.1935 1.27835C44.4285 2.44475 44.3107 4.00116 44.3107 5.69479V9.69595C44.3107 10.8985 44.8033 11.4257 45.2673 12.0757C45.4279 12.3068 45.4636 12.5849 45.2566 12.7582C44.739 13.1952 43.8181 14.0077 43.3112 14.4627L43.3077 14.4554Z" fill="#001D21"/>
<path fill-rule="evenodd" clip-rule="evenodd" d="M7.47791 8.19732C7.47791 9.19761 7.50289 10.0318 7.00318 10.9201C6.59983 11.6424 5.96091 12.0865 5.24703 12.0865C4.27258 12.0865 3.70504 11.3354 3.70504 10.2268C3.70504 8.03843 5.64323 7.6412 7.47791 7.6412V8.19732ZM10.0372 14.4554C9.86941 14.6071 9.62669 14.6179 9.43751 14.5168C8.59513 13.809 8.44522 13.4804 7.98119 12.8051C6.58912 14.2424 5.60397 14.6721 3.79785 14.6721C1.66334 14.6721 0 13.3396 0 10.671C0 8.58732 1.11722 7.16814 2.70561 6.4748C4.0834 5.8609 6.00731 5.75256 7.47791 5.58284V5.25062C7.47791 4.64033 7.52431 3.9181 7.17094 3.39088C6.8604 2.91782 6.26788 2.72281 5.74674 2.72281C4.77944 2.72281 3.91564 3.22476 3.70504 4.26477C3.66221 4.49589 3.49445 4.72339 3.26601 4.73422L0.803117 4.46699C0.59609 4.42005 0.367648 4.25033 0.424758 3.92894C0.992295 0.910019 3.6872 0 6.10012 0C7.33513 0 8.9485 0.332226 9.92295 1.27835C11.158 2.44475 11.0402 4.00116 11.0402 5.69479V9.69595C11.0402 10.8985 11.5328 11.4257 11.9968 12.0757C12.161 12.3068 12.1967 12.5849 11.9896 12.7582C11.4721 13.1952 10.5512 14.0077 10.0443 14.4627L10.0372 14.4554Z" fill="#001D21"/>
</g>
<defs>
<clipPath id="clip0_164_206">
<rect width="82" height="25" fill="white"/>
</clipPath>
</defs>
</svg>
