<svg width="90" height="21" viewBox="0 0 90 21" fill="none" xmlns="http://www.w3.org/2000/svg">
<g clip-path="url(#clip0_164_227)">
<path fill-rule="evenodd" clip-rule="evenodd" d="M21.1365 19.6954H16.1459L14.6192 16.0905H6.30147L4.91168 19.6954H0L7.50176 1.47507H12.8767L21.1365 19.6954ZM10.255 5.82772L7.52808 12.9085H13.2557L10.255 5.82772ZM39.2671 1.47507H43.3049V19.6954H38.6669V8.31348L33.65 14.0328H32.9393L27.9223 8.31348V19.6954H23.2844V1.47507H27.3222L33.2973 8.23612L39.2671 1.47507ZM55.055 1.47507C61.8461 1.47507 65.3363 5.61628 65.3363 10.6136C65.3363 15.8481 61.9513 19.6954 54.5338 19.6954H46.8425V1.47507H55.055ZM51.4805 16.3535H54.5075C59.1717 16.3535 60.5615 13.2541 60.5615 10.5826C60.5615 7.45739 58.8453 4.81176 54.4496 4.81176H51.4752L51.4805 16.3535ZM84.0723 5.72974H74.5438L68.7529 0.0259079L90 0.00012207V20.8454L84.0723 15.0126V5.72974ZM74.5385 15.1931L74.5648 6.77149L68.5318 12.6816V21.0001H77.2602L83.1879 15.1931H74.5385Z" fill="#001D21"/>
</g>
<defs>
<clipPath id="clip0_164_227">
<rect width="90" height="21" fill="white"/>
</clipPath>
</defs>
</svg>
